<svg xmlns="http://www.w3.org/2000/svg" xmlns:xlink="http://www.w3.org/1999/xlink" width="1080" zoomAndPan="magnify" viewBox="0 0 810 809.999993" height="1080" preserveAspectRatio="xMidYMid meet" version="1.0"><path fill="#1f67ff" d="M 791.695312 0.0898438 C 793.085938 0.113281 794.472656 0.132812 795.867188 0.152344 C 797.710938 0.167969 799.554688 0.207031 801.398438 0.246094 L 803.003906 0.257812 C 804.457031 0.296875 805.398438 0.230469 806.921875 0.582031 C 808.539062 1.242188 808.253906 2.707031 808.320312 4.910156 L 808.320312 7.695312 C 808.320312 7.695312 808.300781 51.308594 808.289062 57.414062 C 808.277344 63.558594 808.277344 69.703125 808.277344 75.847656 C 808.277344 116.183594 808.035156 156.503906 807.445312 196.832031 C 807.535156 197.558594 806.101562 198.554688 805.824219 198.726562 C 803.132812 199.011719 800.984375 199.019531 798.289062 199.019531 C 798.289062 199.019531 288.539062 198.789062 275.214844 198.789062 C 267.292969 198.789062 216.355469 198.757812 215.371094 198.757812 C 210.425781 198.734375 206.390625 198.691406 201.375 198.632812 C 201.375 198.632812 199.9375 488.121094 199.601562 496.414062 L 199.558594 498.03125 C 199.488281 499.46875 199.488281 499.46875 199.128906 501.6875 C 197.027344 503.085938 197.027344 503.085938 195.527344 503.265625 L 6.875 503.265625 C 6.875 503.265625 6.859375 503.171875 0.332031 503.355469 C 0.441406 462.707031 0.367188 462.269531 0.367188 462.269531 C -0.0351562 422.035156 -0.0117188 381.800781 0.0078125 341.570312 C 0.0078125 333.613281 0.0078125 325.65625 0.0078125 317.699219 C -0.0117188 277.070312 -0.015625 236.449219 0.382812 195.820312 C 0.382812 195.820312 0.585938 176.816406 0.597656 175.617188 C 0.660156 169.746094 1.210938 156.527344 1.210938 156.527344 C 1.578125 150.625 8.347656 141.542969 11.683594 138.660156 C 11.429688 138.40625 22.949219 126.847656 25.320312 124.941406 C 26.335938 124.125 147.59375 3.945312 149.328125 2.925781 L 150.792969 2.035156 C 153.691406 0.492188 156.34375 0.484375 159.542969 0.460938 " fill-opacity="1" fill-rule="nonzero"/><path fill="#1f67ff" d="M 806.046875 304.058594 L 810 304.195312 C 809.878906 320.902344 807.886719 497.894531 807.886719 497.894531 C 807.445312 499.582031 807.445312 499.582031 806.167969 501.53125 C 803.941406 503.085938 803.941406 503.085938 802.296875 503.40625 C 800.15625 503.539062 620.941406 503.542969 618.507812 503.53125 C 615.867188 503.527344 608.273438 503.519531 608.273438 503.519531 C 602.464844 503.554688 597.460938 504.589844 592.292969 507.296875 L 304.960938 796.371094 C 303.550781 797.433594 297.753906 803.210938 297.753906 803.210938 C 294.199219 805.5 290.507812 806.417969 286.304688 806.734375 C 283.246094 806.839844 36.1875 806.777344 0.640625 806.730469 C 0.539062 804.550781 0.621094 802.964844 0.621094 800.558594 C 0.621094 800.558594 0.695312 615.882812 1.5 608.917969 L 2.199219 608.210938 C 3.28125 608.148438 4.359375 608.113281 5.441406 608.121094 C 5.441406 608.121094 194.304688 607.625 196.96875 607.621094 L 199.3125 607.621094 C 203.507812 607.597656 205.804688 607.429688 209.972656 606.882812 C 212.359375 606.460938 218.882812 600.332031 218.882812 600.332031 C 232.699219 586.601562 233.367188 585.8125 236.457031 582.375 L 499.496094 318.320312 C 500.5 317.273438 509.59375 308.960938 509.59375 308.960938 C 510.597656 308.117188 514.074219 306.167969 515.492188 305.640625 C 521.164062 304.519531 521.8125 304.582031 525.59375 304.375 " fill-opacity="1" fill-rule="nonzero"/></svg>