<svg xmlns="http://www.w3.org/2000/svg" width="250" viewBox="0 0 187.5 45" height="60" version="1.0"><defs><clipPath id="a"><path d="M14 .059h159v44.879H14Zm0 0"/></clipPath><clipPath id="b"><path d="M0 0h159v45H0z"/></clipPath></defs><g clip-path="url(#a)"><g clip-path="url(#b)" fill="currentColor" transform="translate(14)"><path d="M10.949 19.31h7.937v3.968h-7.937v12.844H3.042V8.419h15.843l.97 5.937h-8.907Zm28.746 16.812H22.883V8.419h7.906v21.766h7.937Zm15.087-7.906h-5.375l-2.265 7.906h-5.938L49.11 8.419h7.938l7.906 27.703h-7.906Zm-1.14-3.969-1.547-5.437-1.547 5.437ZM97.261 8.419v27.703h-7.907V22.294l-3.968 13.828h-7.891l-3.969-13.828v13.828h-5.937V8.419h9.906l4.953 17.312 4.953-17.312Zm33.444 0v27.703h-7.907V22.294l-3.968 13.828h-7.891l-3.969-13.828v13.828h-5.937V8.419h9.906l4.953 17.312 4.953-17.312Zm16.209 19.797h-5.375l-2.265 7.906h-5.938l7.906-27.703h7.938l7.906 27.703h-7.906Zm-1.14-3.969-1.547-5.437-1.547 5.437Zm0 0"/></g></g></svg>